<svg width="16" height="4" viewBox="0 0 16 4" fill="none" xmlns="http://www.w3.org/2000/svg">
<path d="M7.68746 1.68753H8.31246M7.68746 2.31253H8.31246M1.85413 1.68753H2.47913M1.85413 2.31253H2.47913M13.5208 1.68753H14.1458M13.5208 2.31253H14.1458M8.8335 2.00008C8.8335 2.46032 8.4604 2.83341 8.00016 2.83341C7.53993 2.83341 7.16683 2.46032 7.16683 2.00008C7.16683 1.53984 7.53993 1.16675 8.00016 1.16675C8.4604 1.16675 8.8335 1.53984 8.8335 2.00008ZM3.00016 2.00008C3.00016 2.46032 2.62707 2.83341 2.16683 2.83341C1.70659 2.83341 1.3335 2.46032 1.3335 2.00008C1.3335 1.53984 1.70659 1.16675 2.16683 1.16675C2.62707 1.16675 3.00016 1.53984 3.00016 2.00008ZM14.6668 2.00008C14.6668 2.46032 14.2937 2.83341 13.8335 2.83341C13.3733 2.83341 13.0002 2.46032 13.0002 2.00008C13.0002 1.53984 13.3733 1.16675 13.8335 1.16675C14.2937 1.16675 14.6668 1.53984 14.6668 2.00008Z" stroke="#5F6D7E" stroke-width="2" stroke-linecap="round"/>
</svg>
