<svg width="120" height="24" viewBox="0 0 120 24" fill="none" xmlns="http://www.w3.org/2000/svg">
<path d="M29.0568 5.25315H31.8961V16.0713H37.1585V18.513H29.0568V5.25315Z" fill="#2E343F"/>
<path d="M38.4367 16.2608C38.002 15.4598 37.7831 14.5595 37.8016 13.6483C37.7831 12.7371 38.002 11.8368 38.4367 11.0358C38.85 10.2874 39.4759 9.67822 40.2353 9.28528C41.0768 8.87957 41.9989 8.66888 42.9331 8.66888C43.8673 8.66888 44.7895 8.87957 45.631 9.28528C46.3892 9.67978 47.0147 10.2885 47.4296 11.0358C47.8622 11.8375 48.0801 12.7375 48.062 13.6483C48.0823 14.5627 47.8643 15.4667 47.4296 16.2715C47.0119 17.0139 46.3869 17.6185 45.631 18.0113C44.7895 18.417 43.8673 18.6277 42.9331 18.6277C41.9989 18.6277 41.0768 18.417 40.2353 18.0113C39.4759 17.6184 38.85 17.0092 38.4367 16.2608ZM45.3562 13.6483C45.3862 12.9151 45.1502 12.1958 44.6917 11.6229C44.4759 11.3702 44.2054 11.17 43.9007 11.0373C43.596 10.9046 43.2652 10.843 42.9331 10.857C42.6014 10.8437 42.271 10.9068 41.9674 11.0414C41.6639 11.1761 41.3954 11.3787 41.1826 11.6336C40.7268 12.2074 40.4945 12.927 40.5288 13.659C40.4945 14.391 40.7268 15.1106 41.1826 15.6844C41.3954 15.9393 41.6639 16.1419 41.9674 16.2765C42.271 16.4112 42.6014 16.4743 42.9331 16.4609C43.2669 16.4724 43.5988 16.4074 43.9036 16.271C44.2084 16.1346 44.478 15.9303 44.6917 15.6737C45.1502 15.1008 45.3862 14.3815 45.3562 13.6483Z" fill="#2E343F"/>
<path d="M49.7939 16.2608C49.3592 15.4598 49.1403 14.5595 49.1588 13.6483C49.1403 12.7371 49.3592 11.8368 49.7939 11.0358C50.2072 10.2874 50.8331 9.67823 51.5925 9.28529C52.4335 8.87963 53.3552 8.66895 54.289 8.66895C55.2228 8.66895 56.1445 8.87963 56.9855 9.28529C57.7449 9.67823 58.3708 10.2874 58.7841 11.0358C59.2188 11.8368 59.4377 12.7371 59.4192 13.6483C59.4399 14.5631 59.221 15.4674 58.7841 16.2715C58.368 17.0151 57.7426 17.6201 56.9855 18.0113C56.1445 18.417 55.2228 18.6277 54.289 18.6277C53.3552 18.6277 52.4335 18.417 51.5925 18.0113C50.8331 17.6184 50.2072 17.0092 49.7939 16.2608ZM56.7134 13.6483C56.7464 12.9165 56.5143 12.1973 56.0596 11.6229C55.836 11.3783 55.564 11.1829 55.2607 11.0492C54.9575 10.9155 54.6297 10.8464 54.2984 10.8464C53.967 10.8464 53.6392 10.9155 53.336 11.0492C53.0327 11.1829 52.7607 11.3783 52.5371 11.6229C52.0872 12.1992 51.8599 12.9182 51.8967 13.6483C51.8629 14.3798 52.0941 15.099 52.5478 15.6737C52.7713 15.9184 53.0434 16.1138 53.3466 16.2475C53.6499 16.3812 53.9776 16.4502 54.309 16.4502C54.6404 16.4502 54.9682 16.3812 55.2714 16.2475C55.5747 16.1138 55.8467 15.9184 56.0703 15.6737C56.5211 15.0978 56.7494 14.3788 56.7134 13.6483Z" fill="#2E343F"/>
<path d="M63.5634 5.25315V12.9278L67.3874 8.7836H70.3789L66.9098 12.5889L70.5763 18.513H67.4835L65.0231 14.577L63.5634 16.146V18.513H60.8949V5.25315H63.5634Z" fill="#2E343F"/>
<path d="M73.8613 16.3168C74.2921 16.6027 74.8016 16.7464 75.3183 16.7278C75.7784 16.7515 76.237 16.6598 76.6526 16.4609C76.8057 16.3917 76.935 16.2788 77.0242 16.1364C77.1134 15.994 77.1587 15.8284 77.1542 15.6604C77.1624 15.5546 77.1462 15.4484 77.1069 15.3498C77.0676 15.2513 77.0062 15.1631 76.9274 15.092C76.7376 14.9527 76.517 14.8612 76.2843 14.8251C76.0175 14.7691 75.5531 14.7024 74.9207 14.6277C74.1985 14.5409 73.4845 14.3954 72.7859 14.1927C72.2647 14.0428 71.7937 13.7552 71.4223 13.3601C71.0656 12.9381 70.8824 12.3963 70.9099 11.8444C70.903 11.2429 71.0901 10.6552 71.4436 10.1686C71.8161 9.66262 72.3239 9.27225 72.9086 9.04245C73.6008 8.76646 74.3411 8.63128 75.0861 8.64484C76.4115 8.6573 77.4789 8.94105 78.2884 9.4961C78.6771 9.74734 78.9996 10.0885 79.2286 10.4908C79.4576 10.893 79.5863 11.3445 79.6039 11.807H77.0689C77.0485 11.6229 76.9859 11.4459 76.8859 11.2899C76.7859 11.134 76.6513 11.0032 76.4925 10.9077C76.0929 10.66 75.628 10.5382 75.1582 10.5582C74.7334 10.5385 74.3114 10.6363 73.9387 10.841C73.7996 10.913 73.6828 11.0217 73.6009 11.1553C73.5191 11.2888 73.4753 11.4422 73.4743 11.5989C73.4683 11.6978 73.4876 11.7965 73.5306 11.8858C73.5736 11.975 73.6388 12.0517 73.7199 12.1086C73.9146 12.2351 74.1337 12.3196 74.363 12.3568C74.6298 12.4048 75.0701 12.4635 75.6972 12.5249C77.0101 12.6779 78.0171 12.959 78.718 13.3681C79.4172 13.7791 79.7667 14.4809 79.7667 15.4789C79.7759 16.0813 79.5792 16.6688 79.209 17.1441C78.8026 17.6486 78.2654 18.0317 77.6559 18.2515C76.9202 18.5238 76.14 18.656 75.3557 18.6411C74.0054 18.6411 72.9077 18.3414 72.0627 17.7418C71.661 17.4689 71.3303 17.104 71.0982 16.6774C70.8661 16.2508 70.7393 15.775 70.7284 15.2895H73.2449C73.263 15.4962 73.3279 15.6962 73.4347 15.8742C73.5415 16.0522 73.6874 16.2035 73.8613 16.3168Z" fill="#2E343F"/>
<path d="M85.9177 18.6278C84.9966 18.6486 84.0851 18.4366 83.2678 18.0114C82.5242 17.6135 81.9151 17.0044 81.5173 16.2608C81.0969 15.4552 80.8858 14.5568 80.9035 13.6483C80.8833 12.737 81.0945 11.8354 81.5173 11.0278C81.9192 10.2857 82.5321 9.67929 83.2785 9.28529C84.1021 8.85906 85.0199 8.64707 85.947 8.66886C87.2475 8.66886 88.3069 9.00065 89.1252 9.66422C89.9623 10.356 90.5043 11.3408 90.6409 12.4181H87.8683C87.7763 11.971 87.5366 11.5679 87.1879 11.2733C86.8299 10.9823 86.3787 10.8307 85.9177 10.8464C85.5986 10.8356 85.2814 10.9003 84.9921 11.0353C84.7027 11.1702 84.4493 11.3715 84.2525 11.6229C83.8154 12.205 83.5946 12.9211 83.6281 13.6483C83.5946 14.3755 83.8154 15.0916 84.2525 15.6737C84.4482 15.9271 84.7011 16.1304 84.9906 16.2673C85.28 16.4041 85.5977 16.4705 85.9177 16.4609C86.3883 16.4775 86.849 16.323 87.2146 16.026C87.5709 15.7189 87.8088 15.297 87.887 14.8331H90.6329C90.5082 15.9223 89.9693 16.9217 89.1279 17.6244C88.3006 18.2933 87.2306 18.6278 85.9177 18.6278Z" fill="#2E343F"/>
<path d="M92.1913 16.2608C91.7567 15.4598 91.5378 14.5595 91.5562 13.6483C91.5378 12.7371 91.7567 11.8368 92.1913 11.0358C92.6047 10.2874 93.2306 9.67823 93.9899 9.28529C94.831 8.87963 95.7527 8.66895 96.6865 8.66895C97.6202 8.66895 98.542 8.87963 99.383 9.28529C100.142 9.67823 100.768 10.2874 101.182 11.0358C101.616 11.8368 101.835 12.7371 101.817 13.6483C101.837 14.5631 101.618 15.4674 101.182 16.2715C100.769 17.0132 100.148 17.618 99.3963 18.0113C98.5553 18.417 97.6336 18.6277 96.6998 18.6277C95.766 18.6277 94.8443 18.417 94.0033 18.0113C93.239 17.6205 92.6082 17.0112 92.1913 16.2608ZM99.1108 13.6483C99.1439 12.9165 98.9117 12.1973 98.457 11.6229C98.2335 11.3783 97.9614 11.1829 97.6582 11.0492C97.355 10.9155 97.0272 10.8464 96.6958 10.8464C96.3644 10.8464 96.0367 10.9155 95.7334 11.0492C95.4302 11.1829 95.1581 11.3783 94.9346 11.6229C94.4808 12.1977 94.2497 12.9168 94.2835 13.6483C94.2497 14.3798 94.4808 15.099 94.9346 15.6737C95.1581 15.9184 95.4302 16.1138 95.7334 16.2475C96.0367 16.3812 96.3644 16.4502 96.6958 16.4502C97.0272 16.4502 97.355 16.3812 97.6582 16.2475C97.9614 16.1138 98.2335 15.9184 98.457 15.6737C98.9127 15.0997 99.1458 14.3805 99.1135 13.6483H99.1108Z" fill="#2E343F"/>
<path d="M112.456 18.513H110.092L109.844 17.3389C109.502 17.763 109.065 18.1007 108.569 18.3246C108.072 18.5485 107.53 18.6524 106.986 18.6278C106.475 18.6473 105.965 18.5643 105.486 18.3837C105.008 18.2032 104.57 17.9287 104.2 17.5764C103.488 16.8772 103.132 15.7066 103.132 14.0646V8.78359H105.801V13.7417C105.801 14.6277 105.956 15.2921 106.265 15.7404C106.426 15.9655 106.642 16.1456 106.893 16.2633C107.143 16.381 107.419 16.4326 107.695 16.4129C107.996 16.4264 108.294 16.3652 108.565 16.2348C108.835 16.1044 109.069 15.9088 109.246 15.6657C109.614 15.1667 109.796 14.4675 109.796 13.5736V8.78359H112.464L112.456 18.513Z" fill="#2E343F"/>
<path d="M113.403 11.0358V8.7836H115.005V6.0537H117.673V8.7836H119.888V11.0358H117.673V15.3055C117.649 15.5703 117.726 15.8345 117.889 16.0446C117.99 16.1294 118.106 16.1931 118.232 16.232C118.357 16.271 118.49 16.2844 118.62 16.2715H120V18.5237H117.809C115.952 18.5237 115.024 17.5959 115.026 15.7404V11.0358H113.403Z" fill="#2E343F"/>
<path d="M13.8564 3.20005L0 11.2V6.40005L9.70256 0.800049L13.8564 3.20005Z" fill="#2E343F"/>
<path d="M19.4051 6.40005V9.16928L2.4 18.9847L0 17.6V14.9949L17.1385 5.09748L19.4051 6.40005Z" fill="#2E343F"/>
<path d="M5.68205 20.8821L19.4051 12.9642V17.6L9.70256 23.2L5.68205 20.8821Z" fill="#2E343F"/>
</svg>
