<svg width="128" height="32" viewBox="0 0 128 32" fill="none" xmlns="http://www.w3.org/2000/svg">
<path d="M33.0568 9.2529H35.8961V20.0711H41.1585V22.5128H33.0568V9.2529Z" fill="white"/>
<path d="M42.4367 20.2605C42.002 19.4595 41.7831 18.5592 41.8016 17.6481C41.7831 16.7369 42.002 15.8366 42.4367 15.0356C42.85 14.2871 43.4759 13.678 44.2353 13.285C45.0768 12.8793 45.9989 12.6686 46.9331 12.6686C47.8673 12.6686 48.7895 12.8793 49.631 13.285C50.3892 13.6795 51.0147 14.2883 51.4296 15.0356C51.8622 15.8373 52.0801 16.7373 52.062 17.6481C52.0823 18.5625 51.8643 19.4665 51.4296 20.2712C51.0119 21.0137 50.3869 21.6183 49.631 22.0111C48.7895 22.4168 47.8673 22.6275 46.9331 22.6275C45.9989 22.6275 45.0768 22.4168 44.2353 22.0111C43.4759 21.6182 42.85 21.009 42.4367 20.2605ZM49.3562 17.6481C49.3862 16.9149 49.1502 16.1956 48.6917 15.6227C48.4759 15.37 48.2054 15.1697 47.9007 15.037C47.596 14.9044 47.2652 14.8427 46.9331 14.8568C46.6014 14.8434 46.271 14.9065 45.9674 15.0412C45.6639 15.1758 45.3954 15.3784 45.1826 15.6333C44.7268 16.2071 44.4945 16.9267 44.5288 17.6587C44.4945 18.3907 44.7268 19.1103 45.1826 19.6841C45.3954 19.9391 45.6639 20.1417 45.9674 20.2763C46.271 20.4109 46.6014 20.474 46.9331 20.4607C47.2669 20.4722 47.5988 20.4072 47.9036 20.2708C48.2084 20.1343 48.478 19.93 48.6917 19.6735C49.1502 19.1006 49.3862 18.3812 49.3562 17.6481Z" fill="white"/>
<path d="M53.7939 20.2606C53.3592 19.4595 53.1403 18.5592 53.1588 17.6481C53.1403 16.7369 53.3592 15.8366 53.7939 15.0356C54.2072 14.2871 54.8331 13.678 55.5925 13.285C56.4335 12.8794 57.3552 12.6687 58.289 12.6687C59.2228 12.6687 60.1445 12.8794 60.9855 13.285C61.7449 13.678 62.3708 14.2871 62.7841 15.0356C63.2188 15.8366 63.4377 16.7369 63.4192 17.6481C63.4399 18.5629 63.221 19.4672 62.7841 20.2712C62.368 21.0148 61.7426 21.6198 60.9855 22.0111C60.1445 22.4168 59.2228 22.6274 58.289 22.6274C57.3552 22.6274 56.4335 22.4168 55.5925 22.0111C54.8331 21.6182 54.2072 21.009 53.7939 20.2606ZM60.7134 17.6481C60.7464 16.9162 60.5143 16.1971 60.0596 15.6227C59.836 15.378 59.564 15.1826 59.2607 15.0489C58.9575 14.9152 58.6297 14.8462 58.2984 14.8462C57.967 14.8462 57.6392 14.9152 57.336 15.0489C57.0327 15.1826 56.7607 15.378 56.5371 15.6227C56.0872 16.1989 55.8599 16.9179 55.8967 17.6481C55.8629 18.3796 56.0941 19.0987 56.5478 19.6735C56.7713 19.9181 57.0434 20.1135 57.3466 20.2472C57.6499 20.3809 57.9776 20.45 58.309 20.45C58.6404 20.45 58.9682 20.3809 59.2714 20.2472C59.5747 20.1135 59.8467 19.9181 60.0703 19.6735C60.5211 19.0976 60.7494 18.3786 60.7134 17.6481Z" fill="white"/>
<path d="M67.5634 9.2529V16.9276L71.3874 12.7834H74.3789L70.9098 16.5887L74.5763 22.5128H71.4835L69.0231 18.5767L67.5634 20.1458V22.5128H64.8949V9.2529H67.5634Z" fill="white"/>
<path d="M77.8613 20.3166C78.2921 20.6025 78.8016 20.7462 79.3183 20.7275C79.7784 20.7513 80.237 20.6595 80.6526 20.4607C80.8057 20.3914 80.935 20.2785 81.0242 20.1361C81.1134 19.9937 81.1587 19.8281 81.1542 19.6601C81.1624 19.5544 81.1462 19.4481 81.1069 19.3496C81.0676 19.251 81.0062 19.1628 80.9274 19.0917C80.7376 18.9525 80.517 18.861 80.2843 18.8249C80.0175 18.7689 79.5531 18.7021 78.9207 18.6274C78.1985 18.5407 77.4845 18.3952 76.7859 18.1925C76.2647 18.0426 75.7937 17.755 75.4223 17.3599C75.0656 16.9378 74.8824 16.3961 74.9099 15.8442C74.903 15.2427 75.0901 14.655 75.4436 14.1683C75.8161 13.6624 76.3239 13.272 76.9086 13.0422C77.6008 12.7662 78.3411 12.631 79.0861 12.6446C80.4115 12.6571 81.4789 12.9408 82.2884 13.4959C82.6771 13.7471 82.9996 14.0883 83.2286 14.4905C83.4576 14.8928 83.5863 15.3443 83.6039 15.8068H81.0689C81.0485 15.6226 80.9859 15.4457 80.8859 15.2897C80.7859 15.1337 80.6513 15.0029 80.4925 14.9075C80.0929 14.6597 79.628 14.5379 79.1582 14.5579C78.7334 14.5382 78.3114 14.6361 77.9387 14.8408C77.7996 14.9128 77.6828 15.0215 77.6009 15.155C77.5191 15.2886 77.4753 15.442 77.4743 15.5987C77.4683 15.6975 77.4876 15.7963 77.5306 15.8855C77.5736 15.9748 77.6388 16.0515 77.7199 16.1083C77.9146 16.2349 78.1337 16.3194 78.363 16.3565C78.6298 16.4045 79.0701 16.4633 79.6972 16.5246C81.0101 16.6776 82.0171 16.9587 82.718 17.3679C83.4172 17.7788 83.7667 18.4807 83.7667 19.4787C83.7759 20.0811 83.5792 20.6685 83.209 21.1438C82.8026 21.6484 82.2654 22.0315 81.6559 22.2513C80.9202 22.5236 80.14 22.6557 79.3557 22.6409C78.0054 22.6409 76.9077 22.3411 76.0627 21.7416C75.661 21.4687 75.3303 21.1038 75.0982 20.6772C74.8661 20.2506 74.7393 19.7747 74.7284 19.2892H77.2449C77.263 19.496 77.3279 19.6959 77.4347 19.8739C77.5415 20.0519 77.6874 20.2033 77.8613 20.3166Z" fill="white"/>
<path d="M89.9177 22.6275C88.9966 22.6484 88.0851 22.4363 87.2678 22.0111C86.5242 21.6133 85.9151 21.0042 85.5173 20.2606C85.0969 19.455 84.8858 18.5566 84.9035 17.6481C84.8833 16.7367 85.0945 15.8352 85.5173 15.0276C85.9192 14.2854 86.5321 13.6791 87.2785 13.285C88.1021 12.8588 89.0199 12.6468 89.947 12.6686C91.2475 12.6686 92.3069 13.0004 93.1252 13.664C93.9623 14.3558 94.5043 15.3406 94.6409 16.4179H91.8683C91.7763 15.9708 91.5366 15.5676 91.1879 15.2731C90.8299 14.9821 90.3787 14.8304 89.9177 14.8461C89.5986 14.8354 89.2814 14.9001 88.9921 15.035C88.7027 15.17 88.4493 15.3713 88.2525 15.6227C87.8154 16.2048 87.5946 16.9209 87.6281 17.6481C87.5946 18.3753 87.8154 19.0914 88.2525 19.6735C88.4482 19.9268 88.7011 20.1302 88.9906 20.267C89.28 20.4038 89.5977 20.4702 89.9177 20.4607C90.3883 20.4772 90.849 20.3227 91.2146 20.0257C91.5709 19.7187 91.8088 19.2968 91.887 18.8329H94.6329C94.5082 19.922 93.9693 20.9215 93.1279 21.6242C92.3006 22.2931 91.2306 22.6275 89.9177 22.6275Z" fill="white"/>
<path d="M96.1913 20.2606C95.7567 19.4595 95.5378 18.5592 95.5562 17.6481C95.5378 16.7369 95.7567 15.8366 96.1913 15.0356C96.6047 14.2871 97.2306 13.678 97.9899 13.285C98.831 12.8794 99.7527 12.6687 100.686 12.6687C101.62 12.6687 102.542 12.8794 103.383 13.285C104.142 13.678 104.768 14.2871 105.182 15.0356C105.616 15.8366 105.835 16.7369 105.817 17.6481C105.837 18.5629 105.618 19.4672 105.182 20.2712C104.769 21.0129 104.148 21.6177 103.396 22.0111C102.555 22.4168 101.634 22.6274 100.7 22.6274C99.766 22.6274 98.8443 22.4168 98.0033 22.0111C97.239 21.6203 96.6082 21.0109 96.1913 20.2606ZM103.111 17.6481C103.144 16.9162 102.912 16.1971 102.457 15.6227C102.233 15.378 101.961 15.1826 101.658 15.0489C101.355 14.9152 101.027 14.8462 100.696 14.8462C100.364 14.8462 100.037 14.9152 99.7334 15.0489C99.4302 15.1826 99.1581 15.378 98.9346 15.6227C98.4808 16.1974 98.2497 16.9166 98.2835 17.6481C98.2497 18.3796 98.4808 19.0987 98.9346 19.6735C99.1581 19.9181 99.4302 20.1135 99.7334 20.2472C100.037 20.3809 100.364 20.45 100.696 20.45C101.027 20.45 101.355 20.3809 101.658 20.2472C101.961 20.1135 102.233 19.9181 102.457 19.6735C102.913 19.0995 103.146 18.3802 103.113 17.6481H103.111Z" fill="white"/>
<path d="M116.456 22.5128H114.092L113.844 21.3386C113.502 21.7627 113.065 22.1004 112.569 22.3244C112.072 22.5483 111.53 22.6521 110.986 22.6275C110.475 22.647 109.965 22.5641 109.486 22.3835C109.008 22.2029 108.57 21.9284 108.2 21.5761C107.488 20.877 107.132 19.7064 107.132 18.0644V12.7834H109.801V17.7415C109.801 18.6274 109.956 19.2919 110.265 19.7402C110.426 19.9653 110.642 20.1453 110.893 20.2631C111.143 20.3808 111.419 20.4323 111.695 20.4127C111.996 20.4262 112.294 20.365 112.565 20.2346C112.835 20.1042 113.069 19.9086 113.246 19.6655C113.614 19.1665 113.796 18.4673 113.796 17.5733V12.7834H116.464L116.456 22.5128Z" fill="white"/>
<path d="M117.403 15.0356V12.7834H119.005V10.0535H121.673V12.7834H123.888V15.0356H121.673V19.3052C121.649 19.5701 121.726 19.8342 121.889 20.0444C121.99 20.1291 122.106 20.1928 122.232 20.2318C122.357 20.2707 122.49 20.2841 122.62 20.2712H124V22.5235H121.809C119.952 22.5235 119.024 21.5957 119.026 19.7402V15.0356H117.403Z" fill="white"/>
<path d="M17.8564 7.1998L4 15.1998V10.3998L13.7026 4.7998L17.8564 7.1998Z" fill="white"/>
<path d="M23.4051 10.3998V13.169L6.4 22.9844L4 21.5998V18.9947L21.1385 9.09724L23.4051 10.3998Z" fill="white"/>
<path d="M9.68205 24.8819L23.4051 16.9639V21.5998L13.7026 27.1998L9.68205 24.8819Z" fill="white"/>
</svg>
