<svg width="32" height="32" viewBox="0 0 32 32" fill="none" xmlns="http://www.w3.org/2000/svg">
<path d="M4 3.5C4 2.67157 4.67157 2 5.5 2H19L28 11V28.5C28 29.3284 27.3284 30 26.5 30H5.5C4.67157 30 4 29.3284 4 28.5V3.5Z" fill="url(#paint0_linear_4_182928)"/>
<path d="M19 9.5V2L28 11H20.5C19.6716 11 19 10.3284 19 9.5Z" fill="#5725BA"/>
<path d="M8.66748 22V17.1H9.60548L11.6915 20.558H11.1945L13.2455 17.1H14.1765L14.1905 22H13.1265L13.1195 18.731H13.3155L11.6775 21.482H11.1665L9.49348 18.731H9.73148V22H8.66748Z" fill="white"/>
<path d="M15.553 22V17.1H17.674C18.1127 17.1 18.4907 17.1723 18.808 17.317C19.1254 17.457 19.3704 17.66 19.543 17.926C19.7157 18.192 19.802 18.5093 19.802 18.878C19.802 19.242 19.7157 19.557 19.543 19.823C19.3704 20.089 19.1254 20.2943 18.808 20.439C18.4907 20.579 18.1127 20.649 17.674 20.649H16.183L16.687 20.138V22H15.553ZM16.687 20.264L16.183 19.725H17.611C17.961 19.725 18.2224 19.6503 18.395 19.501C18.5677 19.3517 18.654 19.144 18.654 18.878C18.654 18.6073 18.5677 18.3973 18.395 18.248C18.2224 18.0987 17.961 18.024 17.611 18.024H16.183L16.687 17.485V20.264Z" fill="white"/>
<path d="M20.3041 20.971V20.208L22.6141 17.1H23.8041L21.5431 20.208L20.9901 20.047H24.8471V20.971H20.3041ZM22.9431 22V20.971L22.9781 20.047V19.13H24.0491V22H22.9431Z" fill="white"/>
<defs>
<linearGradient id="paint0_linear_4_182928" x1="16" y1="2" x2="16" y2="30" gradientUnits="userSpaceOnUse">
<stop stop-color="#9969FA"/>
<stop offset="1" stop-color="#7E4BE4"/>
</linearGradient>
</defs>
</svg>
