<svg width="32" height="32" viewBox="0 0 32 32" fill="none" xmlns="http://www.w3.org/2000/svg">
<path d="M4 3.5C4 2.67157 4.67157 2 5.5 2H19L28 11V28.5C28 29.3284 27.3284 30 26.5 30H5.5C4.67157 30 4 29.3284 4 28.5V3.5Z" fill="url(#paint0_linear_4_182920)"/>
<path d="M19 9.5V2L28 11H20.5C19.6716 11 19 10.3284 19 9.5Z" fill="#BA253D"/>
<path d="M8.72461 22V17.1H10.8456C11.2843 17.1 11.6623 17.1723 11.9796 17.317C12.2969 17.457 12.5419 17.66 12.7146 17.926C12.8873 18.192 12.9736 18.5093 12.9736 18.878C12.9736 19.242 12.8873 19.557 12.7146 19.823C12.5419 20.089 12.2969 20.2943 11.9796 20.439C11.6623 20.579 11.2843 20.649 10.8456 20.649H9.35461L9.85861 20.138V22H8.72461ZM9.85861 20.264L9.35461 19.725H10.7826C11.1326 19.725 11.3939 19.6503 11.5666 19.501C11.7393 19.3517 11.8256 19.144 11.8256 18.878C11.8256 18.6073 11.7393 18.3973 11.5666 18.248C11.3939 18.0987 11.1326 18.024 10.7826 18.024H9.35461L9.85861 17.485V20.264Z" fill="white"/>
<path d="M13.9832 22V17.1H16.2092C16.7412 17.1 17.2102 17.2027 17.6162 17.408C18.0222 17.6087 18.3395 17.891 18.5682 18.255C18.7969 18.619 18.9112 19.0507 18.9112 19.55C18.9112 20.0447 18.7969 20.4763 18.5682 20.845C18.3395 21.209 18.0222 21.4937 17.6162 21.699C17.2102 21.8997 16.7412 22 16.2092 22H13.9832ZM15.1172 21.069H16.1532C16.4799 21.069 16.7622 21.0083 17.0002 20.887C17.2429 20.761 17.4295 20.5837 17.5602 20.355C17.6955 20.1263 17.7632 19.858 17.7632 19.55C17.7632 19.2373 17.6955 18.969 17.5602 18.745C17.4295 18.5163 17.2429 18.3413 17.0002 18.22C16.7622 18.094 16.4799 18.031 16.1532 18.031H15.1172V21.069Z" fill="white"/>
<path d="M21.0164 19.305H23.3684V20.215H21.0164V19.305ZM21.1004 22H19.9664V17.1H23.6694V18.01H21.1004V22Z" fill="white"/>
<defs>
<linearGradient id="paint0_linear_4_182920" x1="16" y1="2" x2="16" y2="30" gradientUnits="userSpaceOnUse">
<stop stop-color="#FA6976"/>
<stop offset="1" stop-color="#E44B5F"/>
</linearGradient>
</defs>
</svg>
