<svg width="22" height="22" viewBox="0 0 22 22" fill="none" xmlns="http://www.w3.org/2000/svg">
<path d="M8.00033 2.7583C8.00033 1.78722 8.78755 1 9.75863 1H12.242C13.2131 1 14.0003 1.78722 14.0003 2.75831C14.0003 4.11186 15.4656 4.95781 16.6378 4.28104C17.4788 3.79548 18.5542 4.08362 19.0398 4.92462L20.2814 7.07525C20.767 7.91625 20.4788 8.99162 19.6378 9.47717C18.4656 10.154 18.4656 11.8459 19.6378 12.5227C20.4788 13.0082 20.767 14.0836 20.2814 14.9246L19.0398 17.0752C18.5542 17.9162 17.4788 18.2044 16.6378 17.7188C15.4656 17.0421 14.0003 17.8881 14.0003 19.2416C14.0003 20.2127 13.2131 21 12.242 21H9.75868C8.78757 21 8.00033 20.2127 8.00033 19.2416C8.00033 17.8881 6.53506 17.0421 5.36285 17.7188C4.52186 18.2044 3.44648 17.9162 2.96094 17.0753L1.71926 14.9246C1.23371 14.0836 1.52186 13.0082 2.36286 12.5227C3.53508 11.8459 3.53508 10.154 2.36286 9.47717C1.52186 8.99162 1.23371 7.91624 1.71926 7.07525L2.96094 4.9246C3.44649 4.08361 4.52187 3.79547 5.36286 4.28102C6.53506 4.95779 8.00033 4.11184 8.00033 2.7583Z" stroke="#5F6D7E" stroke-width="2"/>
<path d="M15.0003 11C15.0003 13.2091 13.2095 15 11.0003 15C8.79119 15 7.00033 13.2091 7.00033 11C7.00033 8.79086 8.79119 7 11.0003 7C13.2095 7 15.0003 8.79086 15.0003 11Z" stroke="#5F6D7E" stroke-width="2"/>
</svg>
