<svg width="32" height="32" viewBox="0 0 32 32" fill="none" xmlns="http://www.w3.org/2000/svg">
<path d="M4 3.5C4 2.67157 4.67157 2 5.5 2H19L28 11V28.5C28 29.3284 27.3284 30 26.5 30H5.5C4.67157 30 4 29.3284 4 28.5V3.5Z" fill="url(#paint0_linear_4_182984)"/>
<path d="M19 9.5V2L28 11H20.5C19.6716 11 19 10.3284 19 9.5Z" fill="#21835A"/>
<path d="M10.5059 22V21.265L13.5369 17.611L13.6769 18.024H10.5619V17.1H14.6849V17.835L11.6609 21.489L11.5209 21.076H14.7899V22H10.5059Z" fill="white"/>
<path d="M15.7171 22V17.1H16.8511V22H15.7171Z" fill="white"/>
<path d="M18.214 22V17.1H20.335C20.7737 17.1 21.1517 17.1723 21.469 17.317C21.7864 17.457 22.0314 17.66 22.204 17.926C22.3767 18.192 22.463 18.5093 22.463 18.878C22.463 19.242 22.3767 19.557 22.204 19.823C22.0314 20.089 21.7864 20.2943 21.469 20.439C21.1517 20.579 20.7737 20.649 20.335 20.649H18.844L19.348 20.138V22H18.214ZM19.348 20.264L18.844 19.725H20.272C20.622 19.725 20.8834 19.6503 21.056 19.501C21.2287 19.3517 21.315 19.144 21.315 18.878C21.315 18.6073 21.2287 18.3973 21.056 18.248C20.8834 18.0987 20.622 18.024 20.272 18.024H18.844L19.348 17.485V20.264Z" fill="white"/>
<defs>
<linearGradient id="paint0_linear_4_182984" x1="16" y1="2" x2="16" y2="30" gradientUnits="userSpaceOnUse">
<stop stop-color="#33B27C"/>
<stop offset="1" stop-color="#289B69"/>
</linearGradient>
</defs>
</svg>
